<svg version="1.1" id="Layer_1" xmlns="http://www.w3.org/2000/svg" xmlns:xlink="http://www.w3.org/1999/xlink" x="0px" y="0px"
	 width="100%" viewBox="0 0 526 468" enable-background="new 0 0 526 468" xml:space="preserve">
<path fill="#000000" opacity="1.000000" stroke="none" 
	d="
M317.000000,469.000000 
	C211.333359,469.000000 106.166718,469.000000 1.000057,469.000000 
	C1.000038,313.000061 1.000038,157.000122 1.000019,1.000140 
	C176.333237,1.000093 351.666473,1.000093 526.999756,1.000047 
	C526.999878,156.999863 526.999878,312.999725 526.999939,468.999786 
	C457.166656,469.000000 387.333344,469.000000 317.000000,469.000000 
M181.972473,383.029419 
	C181.972473,383.029419 181.872742,383.030151 182.049805,383.556854 
	C182.356094,383.747375 182.662384,383.937897 182.969315,384.031616 
	C182.969315,384.031616 182.872482,384.032776 183.051987,384.560425 
	C183.360016,384.750702 183.668045,384.940979 183.976471,385.024292 
	C183.976471,385.024292 183.869537,385.025330 184.050766,385.557953 
	C184.362091,385.748932 184.673416,385.939880 184.984451,386.013306 
	C184.984451,386.013306 184.866943,386.014496 185.059235,386.543335 
	C185.368378,386.739380 185.677521,386.935425 185.985474,387.030029 
	C185.985474,387.030029 185.884064,387.032532 185.988251,387.742950 
	C186.979233,388.534027 187.970200,389.325104 188.963928,390.019897 
	C188.963928,390.019897 188.867645,390.018799 189.048676,390.555817 
	C189.362045,390.748474 189.675415,390.941162 189.989624,391.009735 
	C189.989624,391.009735 189.865555,391.009521 190.039505,391.542542 
	C190.346634,391.736420 190.653763,391.930298 190.978149,392.054474 
	C190.978149,392.054474 190.910110,392.077362 191.151917,392.694550 
	C192.094315,393.173309 193.036697,393.652069 193.974091,394.056030 
	C193.974091,394.056030 193.899490,394.063507 194.148102,394.668793 
	C194.772766,394.827972 195.397430,394.987152 196.008560,395.016022 
	C196.008560,395.016022 195.878235,395.029846 196.198135,395.721680 
	C202.963928,399.049561 209.917358,400.121613 217.379547,398.219360 
	C227.822113,395.557373 234.667892,389.110382 239.232803,379.506927 
	C243.625458,370.265900 248.437378,361.210480 253.386002,352.250732 
	C260.438660,339.481567 267.916962,326.947357 274.958008,314.171967 
	C279.675781,305.611969 283.735687,296.688934 288.467133,288.136993 
	C299.188110,268.759186 310.214722,249.550613 320.969177,230.191086 
	C325.882202,221.346893 330.351196,212.257065 335.190308,203.370529 
	C342.100525,190.680588 349.247253,178.119263 356.139526,165.419754 
	C361.866760,154.866898 367.289581,144.149002 372.998901,133.586166 
	C379.248840,122.023109 385.657623,110.545677 392.029114,99.048630 
	C394.362946,94.837402 396.080444,89.995819 399.316467,86.632263 
	C406.519318,79.145531 414.189362,72.021118 422.275970,65.501945 
	C427.833679,61.021496 434.057587,56.938457 440.628784,54.260849 
	C447.664703,51.393864 455.393982,50.033253 462.939331,48.673969 
	C468.870880,47.605408 474.983826,47.145226 481.014435,47.159752 
	C485.323914,47.170128 489.630493,48.414543 493.989563,49.028168 
	C493.989563,49.028168 493.911102,49.081936 494.266998,49.795311 
	C497.011017,50.351830 499.755035,50.908348 502.704163,51.506458 
	C503.387115,46.903709 502.948242,43.909908 497.800537,43.303387 
	C484.830780,29.335819 468.793152,22.638353 449.762268,22.995089 
	C447.439392,23.038630 445.112366,22.859270 442.789490,22.902481 
	C437.965088,22.992222 432.977112,22.429745 428.357422,23.470978 
	C421.472778,25.022720 414.748566,27.471066 408.144135,30.024250 
	C402.627411,32.156929 397.141418,34.588799 392.082092,37.622456 
	C387.112305,40.602413 382.319489,44.112003 378.135406,48.107899 
	C373.008026,53.004627 368.593842,58.648148 363.229218,64.216347 
	C355.451630,76.468437 347.674072,88.720528 339.259003,101.246780 
	C338.019043,103.482430 336.922150,105.812874 335.514404,107.937340 
	C329.419281,117.135612 323.146698,126.217033 317.107697,135.451508 
	C312.250092,142.879410 307.635223,150.466064 302.285736,158.233536 
	C297.181641,165.771133 292.077545,173.308716 286.919434,180.888672 
	C286.919434,180.888672 286.960205,180.941345 286.441101,181.054382 
	C286.280853,181.352722 286.120605,181.651062 285.974976,181.990128 
	C285.974976,181.990128 285.939636,181.964081 285.464264,182.086090 
	C285.111481,182.278839 285.016510,182.558868 284.983795,183.489151 
	C284.892853,183.665787 284.801910,183.842422 284.279846,184.136948 
	C284.015381,184.343384 283.908142,184.612762 283.944946,184.965515 
	C283.944946,184.965515 283.921326,184.971405 283.360199,185.165466 
	C283.242920,185.722137 283.125641,186.278809 282.381775,187.185959 
	C278.552795,193.439270 274.723785,199.692566 270.261505,206.243835 
	C268.057861,209.452591 265.795563,212.622971 263.664154,215.879028 
	C260.394958,220.873199 257.215851,225.926331 253.954376,230.955627 
	C253.954376,230.955627 253.952713,230.999756 253.398911,231.186417 
	C253.274338,231.734695 253.149765,232.282959 252.371231,233.112137 
	C247.541183,240.722137 242.711136,248.332138 237.237640,256.191254 
	C234.674103,260.119598 232.071472,264.023102 229.556458,267.982269 
	C225.988480,273.599030 222.485001,279.256744 218.336563,285.200897 
	C214.370941,289.268158 210.234695,293.047729 204.055084,293.072327 
	C200.729767,293.085571 197.404083,293.009491 193.723709,292.363586 
	C188.574997,288.945526 183.385010,285.587738 178.286865,282.095825 
	C169.836838,276.308044 161.523651,270.317322 153.001083,264.639801 
	C147.848679,261.207428 142.410172,258.204559 137.071976,254.969650 
	C137.071976,254.969650 137.025589,254.958862 136.900314,254.466980 
	C136.617386,254.303146 136.334457,254.139328 136.053177,253.937500 
	C136.053177,253.937500 136.017929,253.923248 135.826797,253.311600 
	C134.906479,252.870163 133.986160,252.428726 133.064453,251.931015 
	C133.064453,251.931015 133.008179,251.930832 132.772018,251.295853 
	C128.892212,248.410751 125.140373,245.328964 121.095757,242.697159 
	C117.234024,240.184372 113.067390,238.140167 108.809654,235.343658 
	C108.245735,235.214188 107.681808,235.084717 106.993721,234.245178 
	C101.893463,230.547531 96.607765,227.077637 91.730293,223.106384 
	C80.439331,213.913223 68.272430,208.625183 53.092758,208.565567 
	C43.066463,208.526215 31.620462,220.852936 30.417421,228.453552 
	C30.256727,229.468781 31.633455,231.165924 32.732273,231.865799 
	C37.408039,234.843964 42.576176,237.133896 46.957119,240.472244 
	C55.687881,247.125214 63.637352,254.632736 70.083916,263.678650 
	C72.130692,266.550720 75.323120,268.606354 78.207863,271.635651 
	C79.448250,272.775085 80.688629,273.914490 82.215401,275.662079 
	C84.129562,277.781708 86.043724,279.901367 87.982445,282.017426 
	C87.982445,282.017426 87.979027,282.042023 88.236832,282.679443 
	C89.487900,283.780396 90.738968,284.881317 92.130852,286.484802 
	C92.417572,286.662659 92.704292,286.840485 93.037964,287.720032 
	C96.012497,290.492767 98.987022,293.265472 102.047989,296.736267 
	C103.150894,298.101196 104.160690,299.556610 105.378830,300.809509 
	C107.145355,302.626465 109.062416,304.297058 111.025421,306.725830 
	C119.336418,315.498749 127.647423,324.271637 136.150818,333.581848 
	C136.504944,334.023102 136.859070,334.464325 137.026825,335.613007 
	C141.326736,340.014893 145.626648,344.416748 150.563065,349.100281 
	C154.668518,353.525360 158.729980,357.992401 162.896698,362.359039 
	C165.217529,364.791199 167.783112,366.989563 170.109558,369.416779 
	C172.099319,371.492706 173.905472,373.744659 175.995026,376.556305 
	C176.296097,377.061066 176.597153,377.565796 176.945618,378.052063 
	C176.945618,378.052063 176.927231,378.099518 177.138184,378.683502 
	C178.068100,379.488831 178.998016,380.294159 179.942841,381.031189 
	C179.942841,381.031189 179.873215,381.037415 180.034775,381.571960 
	C180.344803,381.757233 180.654816,381.942505 180.964035,382.034882 
	C180.964035,382.034882 180.871201,382.037750 181.059631,382.556213 
	C181.363586,382.747192 181.667557,382.938171 181.972473,383.029419 
M152.030930,218.684082 
	C152.679062,219.462387 153.327209,220.240677 154.026138,221.735840 
	C160.320190,226.140518 166.614258,230.545197 173.199799,235.684906 
	C182.362793,239.192932 191.658066,239.662674 201.386093,238.139313 
	C213.929993,236.174973 224.156494,229.787933 231.565018,220.444519 
	C243.672806,205.174545 245.887390,187.445160 238.874908,169.071854 
	C237.556915,165.618622 236.975220,160.940506 231.950180,159.486420 
	C231.950180,159.486420 231.811707,159.040344 231.809723,158.350052 
	C228.222504,155.204605 224.635300,152.059174 220.906311,148.436996 
	C220.711884,148.138443 220.437683,147.968567 219.935486,147.448456 
	C219.655701,147.290192 219.375931,147.131943 218.764709,146.340332 
	C215.162994,144.557343 211.720459,141.826172 207.926346,141.189224 
	C200.082962,139.872467 192.059891,139.553589 184.096725,139.042130 
	C175.334763,138.479355 168.458755,142.885544 161.183121,148.012527 
	C158.439819,150.983154 155.696503,153.953766 152.330505,157.192917 
	C144.815201,163.359024 142.985718,172.178497 141.041870,181.909683 
	C141.093109,184.923752 141.144348,187.937805 141.051910,191.619278 
	C141.429062,192.414993 141.806213,193.210693 142.039230,194.807587 
	C142.664566,197.223587 143.289902,199.639572 143.994370,202.837601 
	C144.392822,204.591492 144.791275,206.345383 145.083145,208.806625 
	C147.376465,211.883377 149.669785,214.960129 152.030930,218.684082 
z"/>
<path fill="#F8AD3F" opacity="1.000000" stroke="none" 
	d="
M363.871307,63.968781 
	C368.593842,58.648148 373.008026,53.004627 378.135406,48.107899 
	C382.319489,44.112003 387.112305,40.602413 392.082092,37.622456 
	C397.141418,34.588799 402.627411,32.156929 408.144135,30.024250 
	C414.748566,27.471066 421.472778,25.022720 428.357422,23.470978 
	C432.977112,22.429745 437.965088,22.992222 442.789490,22.902481 
	C445.112366,22.859270 447.439392,23.038630 449.762268,22.995089 
	C468.793152,22.638353 484.830780,29.335819 497.997803,43.956425 
	C499.073761,45.700752 499.952484,46.792042 501.330994,48.503994 
	C498.281250,48.741543 496.096191,48.911739 493.911102,49.081936 
	C493.911102,49.081936 493.989563,49.028168 494.125183,48.662010 
	C487.268677,46.540241 480.448517,45.306690 472.950500,45.527214 
	C460.756775,45.885845 449.446106,49.016716 438.043030,52.429733 
	C435.751007,53.115753 433.366516,53.868309 431.385986,55.148956 
	C425.494263,58.958622 419.782593,63.046638 413.625366,67.043274 
	C409.388672,68.029556 405.565948,69.599266 401.658173,69.851501 
	C391.136780,70.530594 380.580566,70.720284 370.034729,70.935066 
	C367.483521,70.987038 364.122131,71.232567 365.975189,66.620819 
	C366.183563,66.102303 364.615570,64.870049 363.871307,63.968781 
z"/>
<path fill="#F1522D" opacity="1.000000" stroke="none" 
	d="
M135.958420,333.044556 
	C127.647423,324.271637 119.336418,315.498749 111.399384,306.372772 
	C116.458168,305.691833 121.138695,305.176208 125.828537,305.069275 
	C143.954987,304.655914 162.083603,304.299377 180.213364,304.098206 
	C184.248871,304.053436 188.292831,305.013702 192.332031,305.006805 
	C199.816086,304.994080 207.376617,302.002075 214.755676,305.792816 
	C215.416687,306.132416 216.405823,305.962219 217.219208,305.853668 
	C220.674347,305.392670 224.111160,304.518585 227.571899,304.423615 
	C241.328186,304.046051 255.161301,302.777252 268.683990,306.601166 
	C270.638733,307.153931 272.401520,308.385406 274.182892,309.637024 
	C270.934814,315.707642 267.756989,321.444061 264.138123,327.142517 
	C259.242798,327.069641 254.788467,327.006897 250.334122,327.004639 
	C229.347992,326.993988 208.361847,327.006714 187.375717,326.997620 
	C173.718430,326.991669 160.049561,327.281219 146.409607,326.785553 
	C141.026733,326.589966 137.902573,328.378265 135.958420,333.044556 
z"/>
<path fill="#F14A2C" opacity="1.000000" stroke="none" 
	d="
M136.054626,333.313202 
	C137.902573,328.378265 141.026733,326.589966 146.409607,326.785553 
	C160.049561,327.281219 173.718430,326.991669 187.375717,326.997620 
	C208.361847,327.006714 229.347992,326.993988 250.334122,327.004639 
	C254.788467,327.006897 259.242798,327.069641 264.067261,327.458771 
	C263.780701,328.915344 263.123962,330.017639 262.197113,331.283203 
	C261.662354,331.998596 261.397705,332.550781 261.100433,333.093567 
	C261.067810,333.084198 261.111023,333.031830 260.905457,333.281403 
	C260.522797,333.923004 260.345734,334.315033 260.184448,335.046692 
	C257.121124,340.921570 254.041946,346.456848 250.790131,352.180084 
	C250.447632,352.663025 250.277817,352.958038 250.168518,353.246796 
	C250.229019,353.240570 250.254959,353.359436 249.898315,353.378448 
	C241.729477,355.080261 233.972809,357.809265 226.093521,358.227264 
	C209.885834,359.087189 193.612671,358.724304 177.366180,358.815613 
	C176.248337,358.821899 175.053040,358.603760 174.022934,358.177704 
	C170.600296,356.762024 167.236633,355.203674 163.299225,353.455322 
	C163.782181,355.432709 164.117706,356.806458 164.805939,359.624237 
	C162.781921,357.777802 161.884308,356.907654 160.933334,356.100372 
	C156.967896,352.734222 152.986450,349.386902 148.991241,346.028809 
	C148.971603,346.024933 148.966248,345.986237 148.903717,345.638977 
	C147.733124,344.371857 146.625061,343.451965 145.559906,342.374634 
	C145.602829,342.217163 145.917816,342.302643 145.692459,342.060730 
	C145.114883,341.556305 144.762650,341.293823 144.106888,340.958893 
	C141.606628,338.892822 139.409912,336.899200 137.213181,334.905579 
	C136.859070,334.464325 136.504944,334.023102 136.054626,333.313202 
z"/>
<path fill="#F2572E" opacity="1.000000" stroke="none" 
	d="
M274.253143,309.302826 
	C272.401520,308.385406 270.638733,307.153931 268.683990,306.601166 
	C255.161301,302.777252 241.328186,304.046051 227.571899,304.423615 
	C224.111160,304.518585 220.674347,305.392670 217.219208,305.853668 
	C216.405823,305.962219 215.416687,306.132416 214.755676,305.792816 
	C207.376617,302.002075 199.816086,304.994080 192.332031,305.006805 
	C188.292831,305.013702 184.248871,304.053436 180.213364,304.098206 
	C162.083603,304.299377 143.954987,304.655914 125.828537,305.069275 
	C121.138695,305.176208 116.458168,305.691833 111.344315,306.024902 
	C109.062416,304.297058 107.145355,302.626465 105.378830,300.809509 
	C104.160690,299.556610 103.150894,298.101196 101.987091,296.027832 
	C101.265511,293.547150 100.604836,291.774841 100.318665,290.071228 
	C104.368576,290.698364 108.038551,291.636292 111.721222,291.689087 
	C114.418068,291.727753 117.127472,290.101288 119.838333,290.079071 
	C138.295395,289.927887 156.754410,289.979370 175.212585,290.033356 
	C178.497849,290.042969 181.820618,290.121216 185.055801,290.621887 
	C188.111511,291.094849 191.074692,292.165802 194.078568,292.973694 
	C197.404083,293.009491 200.729767,293.085571 204.055084,293.072327 
	C210.234695,293.047729 214.370941,289.268158 218.747650,285.351318 
	C220.123856,285.764130 221.093140,286.263916 222.053391,286.247070 
	C225.782516,286.181854 229.509033,285.957428 233.236023,285.782196 
	C235.532562,285.674194 237.827423,285.527771 240.124451,285.433289 
	C250.994385,284.986267 261.920227,283.747589 272.708923,284.491272 
	C277.284882,284.806732 281.113586,285.456421 285.184143,281.887085 
	C285.580994,283.767090 285.838776,284.988220 286.086243,286.562866 
	C282.921936,292.980652 279.767975,299.044952 276.261902,305.244385 
	C275.341064,306.654755 274.772400,307.929962 274.234314,309.220367 
	C274.264893,309.235565 274.253143,309.302826 274.253143,309.302826 
z"/>
<path fill="#F26030" opacity="1.000000" stroke="none" 
	d="
M193.901138,292.668640 
	C191.074692,292.165802 188.111511,291.094849 185.055801,290.621887 
	C181.820618,290.121216 178.497849,290.042969 175.212585,290.033356 
	C156.754410,289.979370 138.295395,289.927887 119.838333,290.079071 
	C117.127472,290.101288 114.418068,291.727753 111.721222,291.689087 
	C108.038551,291.636292 104.368576,290.698364 100.036873,289.928162 
	C97.250725,288.817047 95.120865,287.917694 92.991005,287.018341 
	C92.704292,286.840485 92.417572,286.662659 91.991226,285.888672 
	C90.560745,284.209045 89.269890,283.125519 87.979034,282.042023 
	C87.979027,282.042023 87.982445,282.017426 87.958466,281.655151 
	C85.932663,279.213196 83.930840,277.133575 81.929016,275.053925 
	C80.688629,273.914490 79.448250,272.775085 78.027771,270.994110 
	C76.561974,267.902283 75.276276,265.452026 74.269882,262.761963 
	C78.198936,261.681671 81.834023,260.200165 85.501076,260.116272 
	C98.481834,259.819275 111.473534,260.000031 124.461082,259.999756 
	C129.024399,259.999664 133.587723,259.999756 138.630707,259.999756 
	C137.946732,257.769257 137.523468,256.388977 137.100220,255.008698 
	C142.410172,258.204559 147.848679,261.207428 153.001083,264.639801 
	C161.523651,270.317322 169.836838,276.308044 178.286865,282.095825 
	C183.385010,285.587738 188.574997,288.945526 193.901138,292.668640 
z"/>
<path fill="#EE402B" opacity="1.000000" stroke="none" 
	d="
M149.010864,346.032684 
	C152.986450,349.386902 156.967896,352.734222 160.933334,356.100372 
	C161.884308,356.907654 162.781921,357.777802 164.805939,359.624237 
	C164.117706,356.806458 163.782181,355.432709 163.299225,353.455322 
	C167.236633,355.203674 170.600296,356.762024 174.022934,358.177704 
	C175.053040,358.603760 176.248337,358.821899 177.366180,358.815613 
	C193.612671,358.724304 209.885834,359.087189 226.093521,358.227264 
	C233.972809,357.809265 241.729477,355.080261 249.831055,353.714203 
	C245.062317,363.355988 240.119064,372.745697 234.916885,381.989655 
	C228.406342,393.558624 217.216721,398.969940 204.436569,396.916016 
	C201.557114,396.453247 198.729645,395.667145 195.878235,395.029846 
	C195.878235,395.029846 196.008560,395.016022 195.983490,394.667633 
	C195.272110,394.234009 194.585800,394.148773 193.899490,394.063507 
	C193.899490,394.063507 193.974091,394.056030 194.094910,393.694580 
	C193.113861,392.914520 192.011993,392.495941 190.910110,392.077362 
	C190.910110,392.077362 190.978149,392.054474 191.154495,391.713409 
	C190.842407,391.251404 190.353973,391.130463 189.865555,391.009521 
	C189.865555,391.009521 189.989624,391.009735 190.075165,390.689209 
	C189.729691,390.252045 189.298676,390.135406 188.867645,390.018799 
	C188.867645,390.018799 188.963928,390.019897 189.142059,389.721558 
	C188.174805,388.626343 187.029434,387.829437 185.884064,387.032532 
	C185.884064,387.032532 185.985474,387.030029 186.077850,386.703186 
	C185.735809,386.255737 185.301376,386.135132 184.866943,386.014496 
	C184.866943,386.014496 184.984451,386.013306 185.085800,385.680847 
	C184.747940,385.240723 184.308731,385.133026 183.869537,385.025330 
	C183.869537,385.025330 183.976471,385.024292 184.109711,384.673157 
	C183.786133,384.225616 183.329315,384.129211 182.872482,384.032776 
	C182.872482,384.032776 182.969315,384.031616 183.131348,383.677185 
	C182.819839,383.225189 182.346298,383.127686 181.872742,383.030151 
	C181.872742,383.030151 181.972473,383.029419 182.126038,382.669128 
	C181.810135,382.218445 181.340668,382.128113 180.871201,382.037781 
	C180.871201,382.037750 180.964035,382.034882 181.142609,381.669006 
	C180.838516,381.214569 180.355865,381.126007 179.873215,381.037415 
	C179.873215,381.037415 179.942841,381.031189 180.256195,380.740601 
	C179.355453,379.666504 178.141342,378.882996 176.927246,378.099487 
	C176.927231,378.099518 176.945618,378.052063 177.326614,377.844513 
	C177.069351,377.064240 176.431091,376.491486 175.792831,375.918762 
	C173.905472,373.744659 172.099319,371.492706 170.109558,369.416779 
	C167.783112,366.989563 165.217529,364.791199 162.896698,362.359039 
	C158.729980,357.992401 154.668518,353.525360 150.214264,348.662659 
	C149.580597,347.494263 149.295731,346.763489 149.010864,346.032684 
z"/>
<path fill="#F69038" opacity="1.000000" stroke="none" 
	d="
M302.912689,157.982269 
	C307.635223,150.466064 312.250092,142.879410 317.107697,135.451508 
	C323.146698,126.217033 329.419281,117.135612 335.514404,107.937340 
	C336.922150,105.812874 338.019043,103.482430 339.573517,101.461693 
	C339.313843,104.027039 337.199188,106.159042 340.085754,108.735870 
	C342.633820,111.010529 344.807770,112.593277 348.390259,111.128998 
	C349.952484,110.490456 351.917053,110.563843 353.667633,110.704117 
	C362.836456,111.438858 371.995270,112.298714 381.092896,113.461174 
	C380.344940,115.095856 379.678223,116.393555 378.975830,117.671631 
	C372.272491,129.868820 365.563110,142.062668 358.447266,154.281433 
	C352.739960,154.201767 347.440369,154.116867 342.141815,153.990616 
	C331.271393,153.731644 320.402008,153.373703 309.530609,153.306534 
	C308.529297,153.300354 306.760498,155.012329 306.653046,156.060303 
	C306.344208,159.072540 304.874756,158.753967 302.912689,157.982269 
z"/>
<path fill="#F89D3B" opacity="1.000000" stroke="none" 
	d="
M381.157562,113.115082 
	C371.995270,112.298714 362.836456,111.438858 353.667633,110.704117 
	C351.917053,110.563843 349.952484,110.490456 348.390259,111.128998 
	C344.807770,112.593277 342.633820,111.010529 340.085754,108.735870 
	C337.199188,106.159042 339.313843,104.027039 339.892273,101.324615 
	C347.674072,88.720528 355.451630,76.468437 363.550262,64.092560 
	C364.615570,64.870049 366.183563,66.102303 365.975189,66.620819 
	C364.122131,71.232567 367.483521,70.987038 370.034729,70.935066 
	C380.580566,70.720284 391.136780,70.530594 401.658173,69.851501 
	C405.565948,69.599266 409.388672,68.029556 413.567841,67.384155 
	C411.454407,69.832466 408.778137,71.736671 406.633881,74.119598 
	C396.427734,85.461647 388.330200,98.211418 381.737305,112.194626 
	C381.363739,112.582390 381.178436,112.827454 381.056915,113.061783 
	C381.098694,113.034431 381.157562,113.115082 381.157562,113.115082 
z"/>
<path fill="#F36732" opacity="1.000000" stroke="none" 
	d="
M237.881104,255.942139 
	C242.711136,248.332138 247.541183,240.722137 252.890976,232.796585 
	C253.591385,231.987274 253.772049,231.493515 253.952713,230.999756 
	C253.952713,230.999756 253.954376,230.955627 254.318787,230.892242 
	C258.206024,229.221771 261.658020,226.447739 265.265076,226.228790 
	C275.628448,225.599731 286.055023,225.951096 296.455811,226.033585 
	C299.738251,226.059616 303.098663,227.008820 306.279236,226.545578 
	C310.812561,225.885315 314.396393,226.912354 317.247437,230.479767 
	C312.884247,238.635635 308.782928,246.524246 304.524628,254.327179 
	C303.711914,255.816406 302.279510,256.967407 301.087708,257.955139 
	C300.441895,257.116241 299.793793,256.120087 299.250580,256.174347 
	C298.041199,256.295166 296.883362,257.318909 295.706177,257.315979 
	C280.924255,257.279114 266.141449,257.196747 251.361588,256.957123 
	C246.863800,256.884247 242.374359,256.294952 237.881104,255.942139 
z"/>
<path fill="#F26030" opacity="1.000000" stroke="none" 
	d="
M237.559372,256.066711 
	C242.374359,256.294952 246.863800,256.884247 251.361588,256.957123 
	C266.141449,257.196747 280.924255,257.279114 295.706177,257.315979 
	C296.883362,257.318909 298.041199,256.295166 299.250580,256.174347 
	C299.793793,256.120087 300.441895,257.116241 301.103516,258.310120 
	C298.743500,263.962219 296.508423,269.042206 293.845306,273.886932 
	C291.512024,278.131653 288.698151,282.112152 286.096558,286.209351 
	C285.838776,284.988220 285.580994,283.767090 285.184143,281.887085 
	C281.113586,285.456421 277.284882,284.806732 272.708923,284.491272 
	C261.920227,283.747589 250.994385,284.986267 240.124451,285.433289 
	C237.827423,285.527771 235.532562,285.674194 233.236023,285.782196 
	C229.509033,285.957428 225.782516,286.181854 222.053391,286.247070 
	C221.093140,286.263916 220.123856,285.764130 219.056335,285.199341 
	C222.485001,279.256744 225.988480,273.599030 229.556458,267.982269 
	C232.071472,264.023102 234.674103,260.119598 237.559372,256.066711 
z"/>
<path fill="#F36732" opacity="1.000000" stroke="none" 
	d="
M137.086090,254.989166 
	C137.523468,256.388977 137.946732,257.769257 138.630707,259.999756 
	C133.587723,259.999756 129.024399,259.999664 124.461082,259.999756 
	C111.473534,260.000031 98.481834,259.819275 85.501076,260.116272 
	C81.834023,260.200165 78.198936,261.681671 73.989868,262.702667 
	C72.955353,262.579742 72.480148,262.276337 72.191803,261.756104 
	C74.367470,259.335266 72.709404,259.149323 70.692749,258.828064 
	C64.680397,252.935806 58.923386,247.248169 53.242802,241.485199 
	C51.845676,240.067810 50.697742,238.404800 49.435249,236.854706 
	C51.580784,235.904724 53.656174,234.690033 55.896156,234.096481 
	C57.426456,233.690964 59.186165,234.158020 60.843716,234.224777 
	C69.029152,234.554550 77.411850,232.916489 85.258545,236.676437 
	C85.521370,236.802368 85.967171,236.769928 86.234039,236.631195 
	C92.963524,233.132385 100.191628,235.917770 107.117889,234.955261 
	C107.681808,235.084717 108.245735,235.214188 108.984711,235.959808 
	C115.322502,244.469330 124.585915,247.546860 133.008179,251.930832 
	C133.008179,251.930832 133.064453,251.931015 133.157837,252.272568 
	C134.173462,253.050491 135.095688,253.486877 136.017929,253.923248 
	C136.017929,253.923248 136.053177,253.937500 136.184998,254.148590 
	C136.517487,254.601501 136.753754,254.801224 137.025589,254.958862 
	C137.025589,254.958862 137.071976,254.969650 137.086090,254.989166 
M97.635193,238.108566 
	C97.856041,238.127701 98.076897,238.146851 98.297752,238.165985 
	C98.301674,238.040924 98.305595,237.915848 98.309509,237.790787 
	C98.087646,237.798370 97.865791,237.805954 97.635193,238.108566 
z"/>
<path fill="#F58235" opacity="1.000000" stroke="none" 
	d="
M302.599213,158.107910 
	C304.874756,158.753967 306.344208,159.072540 306.653046,156.060303 
	C306.760498,155.012329 308.529297,153.300354 309.530609,153.306534 
	C320.402008,153.373703 331.271393,153.731644 342.141815,153.990616 
	C347.440369,154.116867 352.739960,154.201767 358.371216,154.625259 
	C358.168335,155.695175 357.633362,156.445236 356.930298,157.058655 
	C356.561951,157.687393 356.361633,158.452805 356.092834,159.552826 
	C350.398743,170.003632 344.773163,180.119812 339.085999,189.863144 
	C337.607910,185.520584 334.811035,183.238831 330.597473,183.040710 
	C321.709991,182.622803 312.813385,182.398758 303.926086,181.977692 
	C298.270020,181.709671 292.623962,181.230682 286.973419,180.846298 
	C292.077545,173.308716 297.181641,165.771133 302.599213,158.107910 
z"/>
<path fill="#F06F35" opacity="1.000000" stroke="none" 
	d="
M72.004944,261.972931 
	C72.480148,262.276337 72.955353,262.579742 73.710564,262.942444 
	C75.276276,265.452026 76.561974,267.902283 77.919479,270.694092 
	C75.323120,268.606354 72.130692,266.550720 70.083916,263.678650 
	C63.637352,254.632736 55.687881,247.125214 46.957119,240.472244 
	C42.576176,237.133896 37.408039,234.843964 32.732273,231.865799 
	C31.633455,231.165924 30.256727,229.468781 30.417421,228.453552 
	C31.620462,220.852936 43.066463,208.526215 53.092758,208.565567 
	C68.272430,208.625183 80.439331,213.913223 91.730293,223.106384 
	C96.607765,227.077637 101.893463,230.547531 107.055801,234.600220 
	C100.191628,235.917770 92.963524,233.132385 86.234039,236.631195 
	C85.967171,236.769928 85.521370,236.802368 85.258545,236.676437 
	C77.411850,232.916489 69.029152,234.554550 60.843716,234.224777 
	C59.186165,234.158020 57.426456,233.690964 55.896156,234.096481 
	C53.656174,234.690033 51.580784,235.904724 49.435249,236.854706 
	C50.697742,238.404800 51.845676,240.067810 53.242802,241.485199 
	C58.923386,247.248169 64.680397,252.935806 70.714630,259.152161 
	C71.348328,260.426361 71.676636,261.199646 72.004944,261.972931 
z"/>
<path fill="#FDF0E4" opacity="1.000000" stroke="none" 
	d="
M357.098358,157.195297 
	C357.633362,156.445236 358.168335,155.695175 358.779388,154.601288 
	C365.563110,142.062668 372.272491,129.868820 378.975830,117.671631 
	C379.678223,116.393555 380.344940,115.095856 381.092896,113.461174 
	C381.157562,113.115082 381.098694,113.034431 381.293854,112.976822 
	C381.627228,112.624588 381.765442,112.329948 381.903625,112.035309 
	C388.330200,98.211418 396.427734,85.461647 406.633881,74.119598 
	C408.778137,71.736671 411.454407,69.832466 413.943024,67.366776 
	C419.782593,63.046638 425.494263,58.958622 431.385986,55.148956 
	C433.366516,53.868309 435.751007,53.115753 438.043030,52.429733 
	C449.446106,49.016716 460.756775,45.885845 472.950500,45.527214 
	C480.448517,45.306690 487.268677,46.540241 494.099579,48.702091 
	C489.630493,48.414543 485.323914,47.170128 481.014435,47.159752 
	C474.983826,47.145226 468.870880,47.605408 462.939331,48.673969 
	C455.393982,50.033253 447.664703,51.393864 440.628784,54.260849 
	C434.057587,56.938457 427.833679,61.021496 422.275970,65.501945 
	C414.189362,72.021118 406.519318,79.145531 399.316467,86.632263 
	C396.080444,89.995819 394.362946,94.837402 392.029114,99.048630 
	C385.657623,110.545677 379.248840,122.023109 372.998901,133.586166 
	C367.289581,144.149002 361.866760,154.866898 356.139526,165.419754 
	C349.247253,178.119263 342.100525,190.680588 335.190308,203.370529 
	C330.351196,212.257065 325.882202,221.346893 320.969177,230.191086 
	C310.214722,249.550613 299.188110,268.759186 288.467133,288.136993 
	C283.735687,296.688934 279.675781,305.611969 274.958008,314.171967 
	C267.916962,326.947357 260.438660,339.481567 253.386002,352.250732 
	C248.437378,361.210480 243.625458,370.265900 239.232803,379.506927 
	C234.667892,389.110382 227.822113,395.557373 217.379547,398.219360 
	C209.917358,400.121613 202.963928,399.049561 196.038177,395.375763 
	C198.729645,395.667145 201.557114,396.453247 204.436569,396.916016 
	C217.216721,398.969940 228.406342,393.558624 234.916885,381.989655 
	C240.119064,372.745697 245.062317,363.355988 250.187714,353.695190 
	C250.254959,353.359436 250.229019,353.240570 250.435623,353.144775 
	C250.749084,352.696716 250.855957,352.344421 250.962814,351.992126 
	C254.041946,346.456848 257.121124,340.921570 260.486389,334.870300 
	C260.885345,333.913513 260.998169,333.472656 261.111023,333.031830 
	C261.111023,333.031830 261.067810,333.084198 261.376801,332.947815 
	C261.946259,332.247620 262.206757,331.683807 262.467224,331.119965 
	C263.123962,330.017639 263.780701,328.915344 264.508270,327.496765 
	C267.756989,321.444061 270.934814,315.707642 274.182892,309.637024 
	C274.253143,309.302826 274.264893,309.235565 274.512573,309.019653 
	C275.378143,307.572266 275.996063,306.340759 276.614014,305.109253 
	C279.767975,299.044952 282.921936,292.980652 286.086243,286.562866 
	C288.698151,282.112152 291.512024,278.131653 293.845306,273.886932 
	C296.508423,269.042206 298.743500,263.962219 301.148804,258.629456 
	C302.279510,256.967407 303.711914,255.816406 304.524628,254.327179 
	C308.782928,246.524246 312.884247,238.635635 317.495667,230.262482 
	C322.496826,221.217606 327.042419,212.687042 331.835266,203.941422 
	C334.437531,199.229568 336.792542,194.732788 339.147583,190.235992 
	C344.773163,180.119812 350.398743,170.003632 356.312866,159.363708 
	C356.767029,158.291733 356.932678,157.743515 357.098358,157.195297 
z"/>
<path fill="#F57934" opacity="1.000000" stroke="none" 
	d="
M339.086029,189.863159 
	C336.792542,194.732788 334.437531,199.229568 331.390991,203.916153 
	C324.651031,204.737289 318.615387,205.611145 312.550568,205.931274 
	C306.572388,206.246857 300.557434,206.177399 294.572601,205.933517 
	C291.231750,205.797363 287.932465,204.843155 284.590424,204.476273 
	C281.266510,204.111359 277.758636,202.637527 274.919281,206.175537 
	C274.431122,206.783813 272.278534,206.056305 270.894806,205.945862 
	C274.723785,199.692566 278.552795,193.439270 282.891357,186.834167 
	C283.574402,185.978729 283.747864,185.475067 283.921326,184.971405 
	C283.921326,184.971405 283.944946,184.965515 284.119781,184.834473 
	C284.517487,184.526382 284.656281,184.298264 284.710968,184.019043 
	C284.801910,183.842422 284.892853,183.665787 285.238129,183.074097 
	C285.675720,182.449387 285.824768,182.217743 285.939636,181.964081 
	C285.939636,181.964081 285.974976,181.990128 286.157593,181.825897 
	C286.579498,181.449661 286.786194,181.209549 286.960205,180.941345 
	C286.960205,180.941345 286.919434,180.888672 286.946411,180.867493 
	C292.623962,181.230682 298.270020,181.709671 303.926086,181.977692 
	C312.813385,182.398758 321.709991,182.622803 330.597473,183.040710 
	C334.811035,183.238831 337.607910,185.520584 339.086029,189.863159 
z"/>
<path fill="#F47234" opacity="1.000000" stroke="none" 
	d="
M270.578156,206.094849 
	C272.278534,206.056305 274.431122,206.783813 274.919281,206.175537 
	C277.758636,202.637527 281.266510,204.111359 284.590424,204.476273 
	C287.932465,204.843155 291.231750,205.797363 294.572601,205.933517 
	C300.557434,206.177399 306.572388,206.246857 312.550568,205.931274 
	C318.615387,205.611145 324.651031,204.737289 331.143738,204.131210 
	C327.042419,212.687042 322.496826,221.217606 317.703003,229.965454 
	C314.396393,226.912354 310.812561,225.885315 306.279236,226.545578 
	C303.098663,227.008820 299.738251,226.059616 296.455811,226.033585 
	C286.055023,225.951096 275.628448,225.599731 265.265076,226.228790 
	C261.658020,226.447739 258.206024,229.221771 254.340866,230.891647 
	C257.215851,225.926331 260.394958,220.873199 263.664154,215.879028 
	C265.795563,212.622971 268.057861,209.452591 270.578156,206.094849 
M281.907440,208.445541 
	C282.377625,208.238754 282.847809,208.031952 283.317993,207.825165 
	C282.941772,207.441559 282.565552,207.057953 282.189331,206.674347 
	C281.974823,207.141403 281.760315,207.608459 281.907440,208.445541 
z"/>
<path fill="#F36732" opacity="1.000000" stroke="none" 
	d="
M143.915237,202.055573 
	C143.289902,199.639572 142.664566,197.223587 142.519226,194.370483 
	C145.292892,193.622726 147.585815,193.048630 149.880371,193.042114 
	C173.301239,192.975601 196.723953,192.850937 220.142395,193.098892 
	C226.629440,193.167572 233.103928,194.420059 239.616714,195.517609 
	C239.156097,197.600281 238.662964,199.294785 237.859924,201.234406 
	C236.020584,201.985413 234.487747,202.941971 232.962219,202.930450 
	C203.279388,202.706406 173.597397,202.369415 143.915237,202.055573 
z"/>
<path fill="#F2572E" opacity="1.000000" stroke="none" 
	d="
M143.954803,202.446579 
	C173.597397,202.369415 203.279388,202.706406 232.962219,202.930450 
	C234.487747,202.941971 236.020584,201.985413 237.844971,201.618744 
	C235.503036,206.958984 232.866119,212.160004 230.027481,217.029144 
	C227.511017,215.465149 225.275345,213.397049 222.865646,213.169205 
	C217.273407,212.640411 211.597168,212.995575 205.954971,213.000854 
	C187.289490,213.018311 168.623993,213.039490 149.686630,212.874588 
	C148.006393,211.159729 146.598053,209.629501 145.189713,208.099274 
	C144.791275,206.345383 144.392822,204.591492 143.954803,202.446579 
z"/>
<path fill="#F69038" opacity="1.000000" stroke="none" 
	d="
M231.811707,159.040344 
	C231.811707,159.040344 231.950180,159.486420 232.036377,160.068024 
	C233.757431,164.092087 235.392303,167.534576 236.636215,170.959335 
	C230.044876,170.295456 223.849777,169.158752 217.643143,169.092056 
	C196.168427,168.861252 174.686874,169.192627 153.214417,168.873260 
	C147.647964,168.790466 144.899094,170.800018 143.794159,176.264175 
	C142.798370,178.033218 142.004120,179.528107 141.209869,181.022995 
	C142.985718,172.178497 144.815201,163.359024 152.704178,157.454376 
	C155.030106,158.476730 156.977676,159.885147 158.935333,159.899292 
	C180.764648,160.057007 202.595596,160.029739 224.425797,159.957565 
	C226.888748,159.949432 229.349777,159.360138 231.811707,159.040344 
z"/>
<path fill="#F47234" opacity="1.000000" stroke="none" 
	d="
M239.584198,195.129410 
	C233.103928,194.420059 226.629440,193.167572 220.142395,193.098892 
	C196.723953,192.850937 173.301239,192.975601 149.880371,193.042114 
	C147.585815,193.048630 145.292892,193.622726 142.591278,193.969879 
	C141.806213,193.210693 141.429062,192.414993 141.303314,190.965683 
	C142.689178,184.462967 143.757523,183.748566 149.498398,184.591904 
	C151.618973,184.903427 153.789413,184.981781 155.937347,184.984406 
	C178.012802,185.011429 200.088623,185.066666 222.163544,184.955414 
	C227.752686,184.927261 233.338974,184.334946 238.947754,184.409729 
	C239.274033,186.847214 239.579117,188.876846 239.958069,191.258118 
	C239.882690,192.782959 239.733444,193.956192 239.584198,195.129410 
z"/>
<path fill="#F89D3B" opacity="1.000000" stroke="none" 
	d="
M231.810715,158.695190 
	C229.349777,159.360138 226.888748,159.949432 224.425797,159.957565 
	C202.595596,160.029739 180.764648,160.057007 158.935333,159.899292 
	C156.977676,159.885147 155.030106,158.476730 153.015518,157.320114 
	C155.696503,153.953766 158.439819,150.983154 161.910400,148.060638 
	C165.298737,147.996307 168.095535,147.292587 170.598816,147.867294 
	C186.869080,151.602768 202.998749,150.949387 219.096146,146.973679 
	C219.375931,147.131943 219.655701,147.290192 220.141205,147.878357 
	C220.545944,148.550217 220.779663,148.752045 221.048080,148.913727 
	C224.635300,152.059174 228.222504,155.204605 231.810715,158.695190 
z"/>
<path fill="#F57934" opacity="1.000000" stroke="none" 
	d="
M238.926575,184.001862 
	C233.338974,184.334946 227.752686,184.927261 222.163544,184.955414 
	C200.088623,185.066666 178.012802,185.011429 155.937347,184.984406 
	C153.789413,184.981781 151.618973,184.903427 149.498398,184.591904 
	C143.757523,183.748566 142.689178,184.462967 141.375153,190.631989 
	C141.144348,187.937805 141.093109,184.923752 141.125870,181.466339 
	C142.004120,179.528107 142.798370,178.033218 144.199768,176.349884 
	C151.083939,176.443146 157.360092,176.941528 163.638214,176.967789 
	C186.801971,177.064636 209.966461,176.981735 233.130447,177.047211 
	C235.082016,177.052719 237.031876,177.659378 239.107727,178.220886 
	C239.187180,178.793167 239.141434,179.131302 239.082504,179.925232 
	C239.021729,181.587952 238.974152,182.794907 238.926575,184.001862 
z"/>
<path fill="#EE402B" opacity="1.000000" stroke="none" 
	d="
M172.908325,234.949875 
	C166.614258,230.545197 160.320190,226.140518 154.050293,221.333435 
	C154.074463,220.931015 154.172928,220.842285 154.523987,220.961273 
	C160.060638,221.721313 165.236389,222.798462 170.433807,222.915756 
	C182.535690,223.188919 194.648041,222.990738 206.756119,223.001923 
	C212.849335,223.007553 218.942520,223.053284 224.903839,223.393921 
	C213.850952,233.320175 201.355392,238.511322 186.596497,237.020126 
	C182.010864,236.556808 177.469788,235.652374 172.908325,234.949875 
z"/>
<path fill="#F8AD3F" opacity="1.000000" stroke="none" 
	d="
M218.930420,146.657013 
	C202.998749,150.949387 186.869080,151.602768 170.598816,147.867294 
	C168.095535,147.292587 165.298737,147.996307 162.267181,148.028336 
	C168.458755,142.885544 175.334763,138.479355 184.096725,139.042130 
	C192.059891,139.553589 200.082962,139.872467 207.926346,141.189224 
	C211.720459,141.826172 215.162994,144.557343 218.930420,146.657013 
z"/>
<path fill="#FDF0E4" opacity="1.000000" stroke="none" 
	d="
M173.054062,235.317383 
	C177.469788,235.652374 182.010864,236.556808 186.596497,237.020126 
	C201.355392,238.511322 213.850952,233.320175 224.903015,223.379822 
	C225.034042,223.052643 225.035309,223.042130 225.278671,222.963348 
	C225.690933,222.601578 225.859848,222.318604 226.028076,222.022476 
	C226.027374,222.009323 226.052322,222.019653 226.338348,221.901611 
	C227.235352,220.986343 227.846298,220.189117 228.406189,219.223694 
	C228.355133,219.055496 228.017319,219.152786 228.379578,219.161499 
	C229.016830,218.789536 229.291809,218.408875 229.748322,218.010361 
	C230.157501,217.842621 230.257294,217.632141 230.229202,217.361038 
	C232.866119,212.160004 235.503036,206.958984 238.154877,201.373611 
	C238.662964,199.294785 239.156097,197.600281 239.616730,195.517609 
	C239.733444,193.956192 239.882690,192.782959 240.080505,190.827026 
	C239.784622,186.519363 239.440170,182.994415 239.095703,179.469452 
	C239.141434,179.131302 239.187180,178.793167 239.140717,177.844971 
	C238.628998,175.791183 238.209473,174.347412 237.797729,172.622299 
	C237.577713,172.054062 237.349915,171.767166 237.168503,171.341248 
	C237.214890,171.202209 237.027161,170.977051 237.027161,170.977051 
	C235.392303,167.534576 233.757431,164.092087 232.064362,160.299866 
	C236.975220,160.940506 237.556915,165.618622 238.874908,169.071854 
	C245.887390,187.445160 243.672806,205.174545 231.565018,220.444519 
	C224.156494,229.787933 213.929993,236.174973 201.386093,238.139313 
	C191.658066,239.662674 182.362793,239.192932 173.054062,235.317383 
z"/>
<path fill="#F06F35" opacity="1.000000" stroke="none" 
	d="
M132.890106,251.613342 
	C124.585915,247.546860 115.322502,244.469330 109.097275,236.232971 
	C113.067390,238.140167 117.234024,240.184372 121.095757,242.697159 
	C125.140373,245.328964 128.892212,248.410751 132.890106,251.613342 
z"/>
<path fill="#F06F35" opacity="1.000000" stroke="none" 
	d="
M93.014481,287.369202 
	C95.120865,287.917694 97.250725,288.817047 99.662369,289.859497 
	C100.604836,291.774841 101.265511,293.547150 101.943871,295.678833 
	C98.987022,293.265472 96.012497,290.492767 93.014481,287.369202 
z"/>
<path fill="#FDF0E4" opacity="1.000000" stroke="none" 
	d="
M148.991241,346.028809 
	C149.295731,346.763489 149.580597,347.494263 149.896011,348.521851 
	C145.626648,344.416748 141.326736,340.014893 137.119995,335.259277 
	C139.409912,336.899200 141.606628,338.892822 144.228851,341.304138 
	C145.075516,341.915436 145.496674,342.109039 145.917816,342.302643 
	C145.917816,342.302643 145.602829,342.217163 145.695068,342.647827 
	C146.846939,344.047760 147.906586,345.016998 148.966248,345.986237 
	C148.966248,345.986237 148.971603,346.024933 148.991241,346.028809 
z"/>
<path fill="#FDF0E4" opacity="1.000000" stroke="none" 
	d="
M494.089050,49.438622 
	C496.096191,48.911739 498.281250,48.741543 501.330994,48.503994 
	C499.952484,46.792042 499.073761,45.700752 498.123566,44.274406 
	C502.948242,43.909908 503.387115,46.903709 502.704163,51.506458 
	C499.755035,50.908348 497.011017,50.351830 494.089050,49.438622 
z"/>
<path fill="#EE402B" opacity="1.000000" stroke="none" 
	d="
M145.136429,208.452942 
	C146.598053,209.629501 148.006393,211.159729 149.762787,213.196442 
	C150.784683,215.094330 151.458542,216.485718 152.090027,217.916977 
	C152.047623,217.956848 151.963089,218.036896 151.963104,218.036896 
	C149.669785,214.960129 147.376465,211.883377 145.136429,208.452942 
z"/>
<path fill="#F06F35" opacity="1.000000" stroke="none" 
	d="
M82.072205,275.358002 
	C83.930840,277.133575 85.932663,279.213196 87.946190,281.656921 
	C86.043724,279.901367 84.129562,277.781708 82.072205,275.358002 
z"/>
<path fill="#F06F35" opacity="1.000000" stroke="none" 
	d="
M88.107933,282.360718 
	C89.269890,283.125519 90.560745,284.209045 91.920822,285.637421 
	C90.738968,284.881317 89.487900,283.780396 88.107933,282.360718 
z"/>
<path fill="#FDF0E4" opacity="1.000000" stroke="none" 
	d="
M185.936157,387.387756 
	C187.029434,387.829437 188.174805,388.626343 189.140686,389.769714 
	C187.970200,389.325104 186.979233,388.534027 185.936157,387.387756 
z"/>
<path fill="#FDF0E4" opacity="1.000000" stroke="none" 
	d="
M177.032715,378.391479 
	C178.141342,378.882996 179.355453,379.666504 180.248749,380.774750 
	C178.998016,380.294159 178.068100,379.488831 177.032715,378.391479 
z"/>
<path fill="#EE402B" opacity="1.000000" stroke="none" 
	d="
M154.024902,220.975006 
	C153.327209,220.240677 152.679062,219.462387 151.997009,218.360489 
	C151.963089,218.036896 152.047623,217.956848 152.376968,218.053558 
	C153.195190,219.047592 153.684052,219.944946 154.172928,220.842285 
	C154.172928,220.842285 154.074463,220.931015 154.024902,220.975006 
z"/>
<path fill="#F06F35" opacity="1.000000" stroke="none" 
	d="
M135.922363,253.617432 
	C135.095688,253.486877 134.173462,253.050491 133.158539,252.300690 
	C133.986160,252.428726 134.906479,252.870163 135.922363,253.617432 
z"/>
<path fill="#FDF0E4" opacity="1.000000" stroke="none" 
	d="
M191.031006,392.385956 
	C192.011993,392.495941 193.113861,392.914520 194.097412,393.731995 
	C193.036697,393.652069 192.094315,393.173309 191.031006,392.385956 
z"/>
<path fill="#FDF0E4" opacity="1.000000" stroke="none" 
	d="
M194.023804,394.366150 
	C194.585800,394.148773 195.272110,394.234009 195.990265,394.732788 
	C195.397430,394.987152 194.772766,394.827972 194.023804,394.366150 
z"/>
<path fill="#FDF0E4" opacity="1.000000" stroke="none" 
	d="
M175.893921,376.237549 
	C176.431091,376.491486 177.069351,377.064240 177.302917,377.853760 
	C176.597153,377.565796 176.296097,377.061066 175.893921,376.237549 
z"/>
<path fill="#F58235" opacity="1.000000" stroke="none" 
	d="
M283.640747,185.068436 
	C283.747864,185.475067 283.574402,185.978729 283.204651,186.658936 
	C283.125641,186.278809 283.242920,185.722137 283.640747,185.068436 
z"/>
<path fill="#F47234" opacity="1.000000" stroke="none" 
	d="
M253.675812,231.093079 
	C253.772049,231.493515 253.591385,231.987274 253.217957,232.656128 
	C253.149765,232.282959 253.274338,231.734695 253.675812,231.093079 
z"/>
<path fill="#FDF0E4" opacity="1.000000" stroke="none" 
	d="
M179.953995,381.304688 
	C180.355865,381.126007 180.838516,381.214569 181.143005,381.715454 
	C180.654816,381.942505 180.344803,381.757233 179.953995,381.304688 
z"/>
<path fill="#F06F35" opacity="1.000000" stroke="none" 
	d="
M136.962952,254.712921 
	C136.753754,254.801224 136.517487,254.601501 136.184174,254.167603 
	C136.334457,254.139328 136.617386,254.303146 136.962952,254.712921 
z"/>
<path fill="#FDF0E4" opacity="1.000000" stroke="none" 
	d="
M189.952530,391.276062 
	C190.353973,391.130463 190.842407,391.251404 191.145874,391.748230 
	C190.653763,391.930298 190.346634,391.736420 189.952530,391.276062 
z"/>
<path fill="#FDF0E4" opacity="1.000000" stroke="none" 
	d="
M188.958160,390.287292 
	C189.298676,390.135406 189.729691,390.252045 190.074753,390.751221 
	C189.675415,390.941162 189.362045,390.748474 188.958160,390.287292 
z"/>
<path fill="#F58235" opacity="1.000000" stroke="none" 
	d="
M286.700653,180.997864 
	C286.786194,181.209549 286.579498,181.449661 286.150269,181.805542 
	C286.120605,181.651062 286.280853,181.352722 286.700653,180.997864 
z"/>
<path fill="#FDF0E4" opacity="1.000000" stroke="none" 
	d="
M184.963089,386.278931 
	C185.301376,386.135132 185.735809,386.255737 186.078461,386.753906 
	C185.677521,386.935425 185.368378,386.739380 184.963089,386.278931 
z"/>
<path fill="#FDF0E4" opacity="1.000000" stroke="none" 
	d="
M183.960144,385.291626 
	C184.308731,385.133026 184.747940,385.240723 185.085938,385.739624 
	C184.673416,385.939880 184.362091,385.748932 183.960144,385.291626 
z"/>
<path fill="#FDF0E4" opacity="1.000000" stroke="none" 
	d="
M182.962234,384.296600 
	C183.329315,384.129211 183.786133,384.225616 184.109528,384.726624 
	C183.668045,384.940979 183.360016,384.750702 182.962234,384.296600 
z"/>
<path fill="#FDF0E4" opacity="1.000000" stroke="none" 
	d="
M181.961273,383.293518 
	C182.346298,383.127686 182.819839,383.225189 183.131027,383.725586 
	C182.662384,383.937897 182.356094,383.747375 181.961273,383.293518 
z"/>
<path fill="#FDF0E4" opacity="1.000000" stroke="none" 
	d="
M180.965424,382.296997 
	C181.340668,382.128113 181.810135,382.218445 182.125565,382.718994 
	C181.667557,382.938171 181.363586,382.747192 180.965424,382.296997 
z"/>
<path fill="#F58235" opacity="1.000000" stroke="none" 
	d="
M285.701965,182.025085 
	C285.824768,182.217743 285.675720,182.449387 285.335907,182.792603 
	C285.016510,182.558868 285.111481,182.278839 285.701965,182.025085 
z"/>
<path fill="#F58235" opacity="1.000000" stroke="none" 
	d="
M284.495422,184.078003 
	C284.656281,184.298264 284.517487,184.526382 284.126373,184.824249 
	C283.908142,184.612762 284.015381,184.343384 284.495422,184.078003 
z"/>
<path fill="#F8AD3F" opacity="1.000000" stroke="none" 
	d="
M220.977203,148.675354 
	C220.779663,148.752045 220.545944,148.550217 220.215302,148.117828 
	C220.437683,147.968567 220.711884,148.138443 220.977203,148.675354 
z"/>
<path fill="#EE402B" opacity="1.000000" stroke="none" 
	d="
M148.903717,345.638977 
	C147.906586,345.016998 146.846939,344.047760 145.652145,342.805298 
	C146.625061,343.451965 147.733124,344.371857 148.903717,345.638977 
z"/>
<path fill="#F1522D" opacity="1.000000" stroke="none" 
	d="
M262.197144,331.283203 
	C262.206757,331.683807 261.946259,332.247620 261.409424,332.957184 
	C261.397705,332.550781 261.662354,331.998596 262.197144,331.283203 
z"/>
<path fill="#EE402B" opacity="1.000000" stroke="none" 
	d="
M250.790131,352.180084 
	C250.855957,352.344421 250.749084,352.696716 250.375122,353.151001 
	C250.277817,352.958038 250.447632,352.663025 250.790131,352.180084 
z"/>
<path fill="#EE402B" opacity="1.000000" stroke="none" 
	d="
M145.692459,342.060730 
	C145.496674,342.109039 145.075516,341.915436 144.532410,341.376587 
	C144.762650,341.293823 145.114883,341.556305 145.692459,342.060730 
z"/>
<path fill="#F1522D" opacity="1.000000" stroke="none" 
	d="
M260.905457,333.281403 
	C260.998169,333.472656 260.885345,333.913513 260.470581,334.530701 
	C260.345734,334.315033 260.522797,333.923004 260.905457,333.281403 
z"/>
<path fill="#F1522D" opacity="1.000000" stroke="none" 
	d="
M276.261902,305.244385 
	C275.996063,306.340759 275.378143,307.572266 274.481995,309.004456 
	C274.772400,307.929962 275.341064,306.654755 276.261902,305.244385 
z"/>
<path fill="#F69038" opacity="1.000000" stroke="none" 
	d="
M381.737305,112.194633 
	C381.765442,112.329948 381.627228,112.624588 381.252075,113.004181 
	C381.178436,112.827454 381.363739,112.582390 381.737305,112.194633 
z"/>
<path fill="#F26030" opacity="1.000000" stroke="none" 
	d="
M72.191803,261.756104 
	C71.676636,261.199646 71.348328,260.426361 70.998146,259.328979 
	C72.709404,259.149323 74.367470,259.335266 72.191803,261.756104 
z"/>
<path fill="#F06F35" opacity="1.000000" stroke="none" 
	d="
M97.639557,237.961060 
	C97.865791,237.805954 98.087646,237.798370 98.309509,237.790787 
	C98.305595,237.915848 98.301674,238.040924 98.297745,238.165985 
	C98.076897,238.146851 97.856041,238.127701 97.639557,237.961060 
z"/>
<path fill="#F69038" opacity="1.000000" stroke="none" 
	d="
M356.930298,157.058655 
	C356.932678,157.743515 356.767029,158.291733 356.381348,159.029083 
	C356.361633,158.452805 356.561951,157.687393 356.930298,157.058655 
z"/>
<path fill="#F57934" opacity="1.000000" stroke="none" 
	d="
M281.726624,208.260529 
	C281.760315,207.608459 281.974823,207.141403 282.189331,206.674347 
	C282.565552,207.057953 282.941772,207.441559 283.317993,207.825165 
	C282.847809,208.031952 282.377625,208.238754 281.726624,208.260529 
z"/>
<path fill="#F1522D" opacity="1.000000" stroke="none" 
	d="
M154.523987,220.961273 
	C153.684052,219.944946 153.195190,219.047592 152.419373,218.013672 
	C151.458542,216.485718 150.784683,215.094330 150.034668,213.381073 
	C168.623993,213.039490 187.289490,213.018311 205.954971,213.000854 
	C211.597168,212.995575 217.273407,212.640411 222.865646,213.169205 
	C225.275345,213.397049 227.511017,215.465149 230.027481,217.029144 
	C230.257294,217.632141 230.157501,217.842621 229.475830,218.179626 
	C228.686996,218.628784 228.352158,218.890793 228.017319,219.152786 
	C228.017319,219.152786 228.355133,219.055496 228.051941,219.218414 
	C227.183258,220.260773 226.617798,221.140213 226.052322,222.019653 
	C226.052322,222.019653 226.027374,222.009323 225.846741,222.174011 
	C225.434601,222.554138 225.224335,222.788605 225.035309,223.042130 
	C225.035309,223.042130 225.034042,223.052643 225.034882,223.066757 
	C218.942520,223.053284 212.849335,223.007553 206.756119,223.001923 
	C194.648041,222.990738 182.535690,223.188919 170.433807,222.915756 
	C165.236389,222.798462 160.060638,221.721313 154.523987,220.961273 
z"/>
<path fill="#F58235" opacity="1.000000" stroke="none" 
	d="
M236.636215,170.959335 
	C237.027161,170.977051 237.214890,171.202209 237.235550,171.600708 
	C237.434128,172.300674 237.612045,172.602158 237.789948,172.903641 
	C238.209473,174.347412 238.628998,175.791183 239.015518,177.610840 
	C237.031876,177.659378 235.082016,177.052719 233.130447,177.047211 
	C209.966461,176.981735 186.801971,177.064636 163.638214,176.967789 
	C157.360092,176.941528 151.083939,176.443146 144.401276,176.075745 
	C144.899094,170.800018 147.647964,168.790466 153.214417,168.873260 
	C174.686874,169.192627 196.168427,168.861252 217.643143,169.092056 
	C223.849777,169.158752 230.044876,170.295456 236.636215,170.959335 
z"/>
<path fill="#F58235" opacity="1.000000" stroke="none" 
	d="
M239.082520,179.925232 
	C239.440170,182.994415 239.784622,186.519363 240.006653,190.475403 
	C239.579117,188.876846 239.274033,186.847214 238.947754,184.409714 
	C238.974152,182.794907 239.021729,181.587952 239.082520,179.925232 
z"/>
<path fill="#EE402B" opacity="1.000000" stroke="none" 
	d="
M226.338348,221.901611 
	C226.617798,221.140213 227.183258,220.260773 228.102997,219.386627 
	C227.846298,220.189117 227.235352,220.986343 226.338348,221.901611 
z"/>
<path fill="#F69038" opacity="1.000000" stroke="none" 
	d="
M237.797729,172.622299 
	C237.612045,172.602158 237.434128,172.300674 237.189163,171.739731 
	C237.349915,171.767166 237.577713,172.054062 237.797729,172.622299 
z"/>
<path fill="#EE402B" opacity="1.000000" stroke="none" 
	d="
M225.278671,222.963348 
	C225.224335,222.788605 225.434601,222.554138 225.847443,222.187164 
	C225.859848,222.318604 225.690933,222.601578 225.278671,222.963348 
z"/>
<path fill="#EE402B" opacity="1.000000" stroke="none" 
	d="
M228.379578,219.161499 
	C228.352158,218.890793 228.686996,218.628784 229.294312,218.197510 
	C229.291809,218.408875 229.016830,218.789536 228.379578,219.161499 
z"/>
</svg>